<?xml version="1.0" encoding="UTF-8" standalone="no"?>
<svg
   xmlns:dc="http://purl.org/dc/elements/1.1/"
   xmlns:cc="http://creativecommons.org/ns#"
   xmlns:rdf="http://www.w3.org/1999/02/22-rdf-syntax-ns#"
   xmlns:svg="http://www.w3.org/2000/svg"
   xmlns="http://www.w3.org/2000/svg"
   id="svg4567"
   version="1.1"
   viewBox="0 0 60.56493 58.64761"
   height="58.64761mm"
   width="60.56493mm">
  <defs
     id="defs4561" />
  <metadata
     id="metadata4564">
    <rdf:RDF>
      <cc:Work
         rdf:about="">
        <dc:format>image/svg+xml</dc:format>
        <dc:type
           rdf:resource="http://purl.org/dc/dcmitype/StillImage" />
        <dc:title></dc:title>
      </cc:Work>
    </rdf:RDF>
  </metadata>
  <g
     transform="translate(110.9449,-8.8667103)"
     id="layer1">
    <path
       id="path4"
       d="m -80.558297,26.987526 c -6.764072,0 -12.267406,5.502804 -12.267406,12.268994 0,6.765925 5.503334,12.268729 12.267406,12.268729 6.768041,0 12.269523,-5.502804 12.269523,-12.268729 0,-6.76619 -5.501482,-12.268729 -12.269523,-12.268729 z m 0,27.130375 c -8.194939,0 -14.860322,-6.666442 -14.860322,-14.861381 0,-8.195469 6.665383,-14.861646 14.860322,-14.861646 8.196791,0 14.862968,6.666177 14.862968,14.861646 0,8.194939 -6.666177,14.861645 -14.862968,14.861645 m -11.569699,-27.81247 c 0.374385,0.430477 0.333375,1.082146 -0.09499,1.457325 -0.433387,0.37756 -1.085321,0.332052 -1.457325,-0.09604 l -7.684819,-8.778879 c -0.37438,-0.432065 -0.3302,-1.08294 0.096,-1.454679 0.42889,-0.375444 1.084,-0.33655 1.458387,0.09551 l 7.682707,8.776758 m 12.643642,-4.746625 c 0.0058,0.568325 -0.454025,1.033727 -1.023937,1.038225 -0.571059,0.0048 -1.037224,-0.455509 -1.039548,-1.026584 l -0.08282,-11.6630975 c -0.0053,-0.5699139 0.452697,-1.0360706 1.022615,-1.0408709 0.571474,-0.00411 1.037905,0.4561632 1.0414,1.0276417 l 0.08202,11.6646857 m -18.718166,14.86165 c 0.567788,0.04692 0.990778,0.544072 0.94615,1.112044 -0.04648,0.569111 -0.545274,0.992942 -1.114425,0.946944 l -11.625525,-0.946944 c -0.56991,-0.04789 -0.99563,-0.547158 -0.94403,-1.111779 0.0439,-0.569383 0.53948,-0.991129 1.11336,-0.950913 l 11.62447,0.950913 m 1.873515,11.049529 c 0.48198,-0.305124 1.12006,-0.161656 1.425046,0.320411 0.304822,0.482676 0.160801,1.121058 -0.321734,1.426104 l -9.860487,6.231731 c -0.48525,0.306387 -1.1229,0.162983 -1.42346,-0.319352 -0.30642,-0.48197 -0.16207,-1.121251 0.32173,-1.424781 l 9.858905,-6.234113 m 8.809037,7.687469 c 0.200685,-0.534028 0.796379,-0.804151 1.330325,-0.60325 0.533356,0.202789 0.803376,0.797752 0.604838,1.332706 l -4.110831,10.916179 c -0.205053,0.533665 -0.797984,0.803275 -1.326092,0.601134 -0.537432,-0.197123 -0.810753,-0.794887 -0.608277,-1.330325 l 4.110037,-10.916444 m 22.27871,-5.501481 c -0.506096,-0.263384 -0.700864,-0.888541 -0.433917,-1.392767 0.264391,-0.506105 0.890315,-0.70014 1.394619,-0.432329 l 10.323777,5.426869 c 0.507206,0.269081 0.700352,0.893497 0.4318,1.391443 -0.263525,0.509588 -0.886354,0.700088 -1.396735,0.436563 l -10.31928,-5.429779 m 2.363259,-12.588346 c -0.566738,0.06641 -1.080029,-0.339196 -1.145117,-0.901965 -0.0683,-0.567458 0.337668,-1.082335 0.905404,-1.148291 l 11.585046,-1.354931 c 0.569648,-0.06509 1.08294,0.340254 1.145117,0.903816 0.06894,0.568046 -0.337283,1.083804 -0.905669,1.149879 l -11.584781,1.351492 m -7.602802,29.068712 c 0.191333,0.538121 -0.0901,1.129416 -0.628386,1.320271 -0.539221,0.184944 -1.126596,-0.0926 -1.315773,-0.631825 l -3.879056,-11.00455 c -0.188383,-0.535517 0.09419,-1.127389 0.629973,-1.314714 0.537786,-0.192153 1.129157,0.09053 1.31736,0.629708 l 3.875882,11.00111 m 1.908968,-39.544095 c -0.350166,0.450563 -0.999239,0.532052 -1.449916,0.182033 -0.448978,-0.350591 -0.528812,-0.998737 -0.178329,-1.4478 l 7.182908,-9.196917 c 0.351102,-0.449262 1.000125,-0.531812 1.448594,-0.179387 0.448468,0.349779 0.528108,1.000125 0.175683,1.452298 l -7.17894,9.189773"
       style="fill:#4d4b3d;stroke-width:0.26458332" />
  </g>
</svg>
