<?xml version="1.0" encoding="UTF-8" standalone="no"?>
<svg
   xmlns:dc="http://purl.org/dc/elements/1.1/"
   xmlns:cc="http://creativecommons.org/ns#"
   xmlns:rdf="http://www.w3.org/1999/02/22-rdf-syntax-ns#"
   xmlns:svg="http://www.w3.org/2000/svg"
   xmlns="http://www.w3.org/2000/svg"
   id="svg5134"
   version="1.1"
   viewBox="0 0 69.547554 69.843552"
   height="69.843552mm"
   width="69.547554mm">
  <defs
     id="defs5128" />
  <metadata
     id="metadata5131">
    <rdf:RDF>
      <cc:Work
         rdf:about="">
        <dc:format>image/svg+xml</dc:format>
        <dc:type
           rdf:resource="http://purl.org/dc/dcmitype/StillImage" />
        <dc:title></dc:title>
      </cc:Work>
    </rdf:RDF>
  </metadata>
  <g
     transform="translate(-0.35451381,41.440381)"
     id="layer1">
    <path
       id="path32"
       d="m 63.302612,-21.048776 c 0.02963,-0.314855 0.04471,-0.629444 0.04471,-0.942182 0,-5.910527 -4.814358,-10.724885 -10.726473,-10.724885 -2.022475,0 -3.959225,0.560122 -5.63827,1.607344 -1.040867,-6.103409 -6.635217,-10.673028 -13.186036,-10.311872 -6.233583,0.309827 -11.168855,4.869128 -11.977687,10.720653 -1.126595,-0.40005 -2.28891,-0.603515 -3.468687,-0.603515 -5.913967,0 -10.7270023,4.811713 -10.7270023,10.726738 0,0.125677 0.00609,0.25056 0.017727,0.386292 -2.9977291,0.815975 -7.29694372,2.548995 -7.28636039,8.673836 0.002646,4.5510965 3.78777509,8.4579345 8.93815419,8.7021445 l 53.8622865,-0.251618 c 3.974042,-1.321594 6.9596,-5.430838 6.735234,-9.8729265 -0.18759,-3.787511 -2.8321,-6.979445 -6.587596,-8.110009"
       style="fill:#4d4b3d;stroke-width:0.26458332" />
    <path
       id="path34"
       d="M 14.730669,28.403172 15.095,27.838022 27.902949,8.0837005 l -12.44203,-0.0217 10.592065,-16.914283 h 1.025524 L 19.906713,5.8707215 33.261291,5.9368715 14.730669,28.403172 M 34.490545,20.589233 34.81757,20.083349 46.300487,2.3731985 35.146183,2.3541485 44.641814,-12.809651 h 0.918104 L 39.128691,0.38961752 51.106908,0.44914752 34.49081,20.589232"
       style="fill:#4d4b3d;stroke-width:0.26458332" />
  </g>
</svg>
